<?xml version="1.0" standalone="no"?>
<!DOCTYPE svg PUBLIC "-//W3C//DTD SVG 20010904//EN"
 "http://www.w3.org/TR/2001/REC-SVG-20010904/DTD/svg10.dtd">
<svg version="1.0" xmlns="http://www.w3.org/2000/svg"
 width="500.000000pt" height="500.000000pt" viewBox="0 0 500.000000 500.000000"
 preserveAspectRatio="xMidYMid meet">

<g transform="translate(0.000000,500.000000) scale(0.100000,-0.100000)"
fill="#000000" stroke="none">
<path d="M1860 4347 c-68 -54 -110 -106 -151 -187 -45 -90 -59 -151 -59 -271
0 -205 43 -324 154 -426 124 -113 231 -147 466 -146 180 0 299 18 459 69 160
52 248 67 360 62 111 -4 169 -29 208 -87 43 -64 28 -184 -42 -321 -49 -96
-173 -271 -294 -414 -41 -49 125 93 211 181 165 166 270 328 298 459 10 46 8
60 -19 145 -17 52 -52 137 -78 189 -62 123 -83 135 -228 134 -112 -1 -124 -4
-339 -96 -290 -124 -397 -152 -581 -152 -192 0 -299 34 -369 116 -162 189
-162 450 2 692 56 83 64 96 60 96 -2 0 -28 -20 -58 -43z"/>
<path d="M999 3912 c-30 -32 -67 -77 -83 -100 l-29 -42 17 -68 c22 -91 67
-180 123 -242 31 -34 113 -96 237 -177 173 -114 424 -291 485 -344 29 -24 20
-33 -41 -43 -58 -9 -133 -51 -163 -90 -36 -47 -44 -82 -55 -230 -5 -71 -14
-134 -19 -139 -7 -7 -30 -4 -68 8 -74 23 -138 23 -194 -2 -46 -21 -104 -78
-120 -120 -17 -45 -10 -125 15 -178 56 -118 117 -166 346 -277 182 -89 236
-127 380 -274 115 -117 286 -256 358 -291 29 -14 55 -23 58 -20 3 3 -19 21
-49 41 -62 41 -189 182 -260 289 -66 98 -178 332 -215 447 -40 127 -64 250
-66 335 l-1 70 50 -1 c28 -1 111 -13 185 -27 74 -14 205 -31 290 -38 200 -15
621 -6 739 16 47 9 141 25 210 35 138 20 320 63 360 85 39 21 9 19 -126 -11
-232 -50 -444 -76 -674 -81 -287 -7 -285 -8 -439 142 -110 107 -248 220 -705
574 -115 90 -231 184 -257 209 -80 77 -120 192 -139 400 -6 70 -18 140 -26
155 -11 22 -47 47 -68 47 -1 0 -27 -26 -56 -58z m851 -1046 c55 -44 160 -139
160 -146 0 -4 -44 -27 -97 -50 -54 -23 -119 -51 -144 -62 -61 -27 -88 -20
-155 44 -58 55 -66 80 -38 127 46 77 217 132 274 87z m-372 -499 c18 -21 43
-186 32 -207 -13 -23 -89 -53 -126 -48 -22 2 -33 12 -49 43 -27 56 -25 104 7
152 38 58 111 90 136 60z m46 -266 c19 -21 46 -101 46 -138 0 -33 -26 -29 -85
12 -79 57 -85 81 -28 120 45 30 45 30 67 6z"/>
<path d="M1196 3765 c11 -48 63 -174 102 -248 30 -59 56 -88 176 -195 78 -69
182 -162 231 -208 50 -45 112 -100 139 -121 147 -116 271 -219 351 -292 113
-104 233 -196 242 -187 4 4 2 15 -5 24 -32 45 -35 60 -18 86 25 39 51 52 167
85 81 24 128 31 195 32 136 1 61 16 -146 28 -163 10 -295 5 -386 -14 -40 -9
-60 2 -161 88 -76 64 -82 72 -68 87 8 9 61 28 118 41 95 22 120 24 352 23 138
-1 300 -7 360 -12 167 -17 321 -25 314 -18 -3 3 -59 10 -125 16 -65 5 -209 16
-319 25 -249 21 -458 15 -632 -18 -67 -13 -130 -20 -140 -16 -55 21 -536 466
-587 543 -18 28 -43 71 -56 95 -12 24 -42 76 -66 115 -32 51 -43 62 -38 41z"/>
<path d="M1071 2539 c-49 -25 -103 -92 -126 -158 -21 -61 -19 -176 3 -248 10
-32 42 -95 70 -140 29 -46 52 -85 52 -87 0 -3 -28 -20 -62 -38 -80 -42 -185
-141 -243 -229 -25 -37 -45 -72 -45 -77 0 -42 144 -314 206 -388 l24 -29 -23
50 c-18 42 -22 68 -22 160 0 107 1 112 38 190 54 113 152 227 220 256 24 10
38 6 130 -39 56 -28 125 -60 154 -71 135 -53 278 -134 340 -194 67 -64 84 -65
31 -1 -57 69 -141 133 -251 190 -59 31 -127 69 -150 84 -23 15 -94 62 -159
103 -126 82 -176 134 -230 241 -73 145 -19 330 116 395 33 17 62 21 137 21
136 1 90 23 -56 27 -97 3 -115 1 -154 -18z"/>
<path d="M2215 1955 l0 -355 175 0 c163 0 179 2 220 23 62 32 85 67 85 132 0
57 -18 91 -66 127 -24 18 -105 37 -254 57 -76 11 -104 26 -85 45 6 6 39 3 85
-7 98 -22 160 -21 211 2 105 48 137 182 63 266 -46 52 -103 65 -283 65 l-151
0 0 -355z m289 199 c54 -53 -23 -126 -146 -139 -68 -7 -102 9 -106 51 -6 56
74 102 180 103 39 1 61 -4 72 -15z m-124 -256 c133 -44 180 -98 130 -148 -42
-42 -103 -17 -193 80 -102 110 -92 120 63 68z"/>
<path d="M2747 2304 c-3 -4 0 -19 8 -33 40 -78 145 -528 145 -623 l0 -48 140
0 140 0 0 44 c0 43 35 235 45 244 3 3 7 3 10 0 10 -10 45 -195 45 -240 l0 -48
140 0 140 0 0 50 c0 113 89 480 155 643 7 16 -2 17 -109 17 -105 0 -118 -2
-137 -21 -31 -31 -20 -99 38 -246 39 -99 47 -129 47 -188 2 -120 -45 -161 -91
-80 -44 78 -110 409 -97 491 l6 44 -127 0 c-117 0 -127 -1 -122 -17 4 -10 18
-51 32 -90 37 -106 49 -215 36 -326 -16 -134 -61 -182 -103 -110 -44 75 -114
428 -98 497 4 19 5 37 2 40 -7 8 -237 7 -245 0z"/>
<path d="M3767 2303 c-12 -12 -8 -265 4 -261 6 2 37 55 68 118 43 90 60 115
76 115 20 0 20 -7 20 -338 l0 -337 95 0 95 0 -3 327 c-1 205 1 334 8 343 21
33 56 -15 128 -179 24 -53 48 -64 46 -20 -1 13 -2 72 -3 132 l-1 107 -263 0
c-145 0 -267 -3 -270 -7z"/>
<path d="M1572 1526 c-32 -71 1 -203 66 -258 38 -32 235 -133 308 -158 31 -11
103 -27 162 -36 59 -8 134 -20 167 -25 33 -5 96 -9 140 -9 125 0 78 18 -75 29
-241 17 -522 104 -637 197 -51 42 -103 140 -104 198 -1 23 -4 52 -8 65 l-6 24
-13 -27z"/>
<path d="M1257 1492 c-46 -28 -78 -107 -80 -195 -2 -75 -2 -76 36 -114 20 -22
37 -43 37 -49 0 -17 70 -94 101 -109 60 -32 128 -15 185 47 62 65 78 123 49
178 -20 38 -46 45 -116 30 -32 -7 -65 -10 -72 -7 -11 4 -16 29 -18 97 -4 86
-6 93 -32 116 -33 28 -52 30 -90 6z m43 -108 c0 -49 -19 -121 -36 -135 -20
-17 -19 79 2 131 20 50 34 51 34 4z m217 -210 c-19 -37 -55 -70 -89 -83 -24
-9 -28 -8 -28 7 0 47 97 135 123 112 5 -4 2 -21 -6 -36z"/>
<path d="M975 1110 c10 -11 20 -20 23 -20 3 0 -3 9 -13 20 -10 11 -20 20 -23
20 -3 0 3 -9 13 -20z"/>
<path d="M1084 997 c137 -124 277 -218 404 -270 60 -24 291 -82 387 -97 95
-15 468 -18 509 -4 25 8 11 12 -90 22 -160 17 -511 77 -626 107 -170 44 -337
116 -520 224 -47 27 -90 57 -97 65 -8 9 -19 16 -25 16 -6 0 20 -28 58 -63z"/>
</g>
</svg>
