<svg xmlns="http://www.w3.org/2000/svg" xmlns:xlink="http://www.w3.org/1999/xlink" width="500" zoomAndPan="magnify" viewBox="0 0 375 374.999991" height="500" preserveAspectRatio="xMidYMid meet" version="1.0"><defs><clipPath id="679d3c9f92"><path d="M 66.429688 76.449219 L 264.859375 76.449219 L 264.859375 280 L 66.429688 280 Z M 66.429688 76.449219 " clip-rule="nonzero"/></clipPath><clipPath id="cc6ae50039"><path d="M 47.25 153.15625 L 47.25 221.84375 C 47.25 281.902344 95.941406 330.597656 156.003906 330.597656 C 216.066406 330.597656 264.753906 281.902344 264.753906 221.84375 L 264.753906 153.15625 C 264.753906 93.097656 216.066406 44.402344 156.003906 44.402344 C 95.941406 44.402344 47.25 93.097656 47.25 153.15625 Z M 47.25 153.15625 " clip-rule="nonzero"/></clipPath><clipPath id="170acf3a2a"><path d="M 50 182 L 213.382812 182 L 213.382812 330.175781 L 50 330.175781 Z M 50 182 " clip-rule="nonzero"/></clipPath><clipPath id="b495759f5e"><path d="M 47.25 153.15625 L 47.25 221.84375 C 47.25 281.902344 95.941406 330.597656 156.003906 330.597656 C 216.066406 330.597656 264.753906 281.902344 264.753906 221.84375 L 264.753906 153.15625 C 264.753906 93.097656 216.066406 44.402344 156.003906 44.402344 C 95.941406 44.402344 47.25 93.097656 47.25 153.15625 Z M 47.25 153.15625 " clip-rule="nonzero"/></clipPath><clipPath id="c5fef2a736"><path d="M 88.136719 88.136719 L 238 88.136719 L 238 188 L 88.136719 188 Z M 88.136719 88.136719 " clip-rule="nonzero"/></clipPath><clipPath id="5911e8adb1"><path d="M 47.25 153.15625 L 47.25 221.84375 C 47.25 281.902344 95.941406 330.597656 156.003906 330.597656 C 216.066406 330.597656 264.753906 281.902344 264.753906 221.84375 L 264.753906 153.15625 C 264.753906 93.097656 216.066406 44.402344 156.003906 44.402344 C 95.941406 44.402344 47.25 93.097656 47.25 153.15625 Z M 47.25 153.15625 " clip-rule="nonzero"/></clipPath><clipPath id="5bd016fd46"><path d="M 87 261 L 121 261 L 121 300 L 87 300 Z M 87 261 " clip-rule="nonzero"/></clipPath><clipPath id="74b49aaf61"><path d="M 47.25 153.15625 L 47.25 221.84375 C 47.25 281.902344 95.941406 330.597656 156.003906 330.597656 C 216.066406 330.597656 264.753906 281.902344 264.753906 221.84375 L 264.753906 153.15625 C 264.753906 93.097656 216.066406 44.402344 156.003906 44.402344 C 95.941406 44.402344 47.25 93.097656 47.25 153.15625 Z M 47.25 153.15625 " clip-rule="nonzero"/></clipPath><clipPath id="3c15330e0d"><path d="M 116 257 L 191 257 L 191 298 L 116 298 Z M 116 257 " clip-rule="nonzero"/></clipPath><clipPath id="013d6de67c"><path d="M 47.25 153.15625 L 47.25 221.84375 C 47.25 281.902344 95.941406 330.597656 156.003906 330.597656 C 216.066406 330.597656 264.753906 281.902344 264.753906 221.84375 L 264.753906 153.15625 C 264.753906 93.097656 216.066406 44.402344 156.003906 44.402344 C 95.941406 44.402344 47.25 93.097656 47.25 153.15625 Z M 47.25 153.15625 " clip-rule="nonzero"/></clipPath><clipPath id="88e8d38954"><path d="M 122 44.402344 L 261.8125 44.402344 L 261.8125 183 L 122 183 Z M 122 44.402344 " clip-rule="nonzero"/></clipPath><clipPath id="a52918fb34"><path d="M 47.25 153.15625 L 47.25 221.84375 C 47.25 281.902344 95.941406 330.597656 156.003906 330.597656 C 216.066406 330.597656 264.753906 281.902344 264.753906 221.84375 L 264.753906 153.15625 C 264.753906 93.097656 216.066406 44.402344 156.003906 44.402344 C 95.941406 44.402344 47.25 93.097656 47.25 153.15625 Z M 47.25 153.15625 " clip-rule="nonzero"/></clipPath></defs><path fill="#00ffee" d="M 165.988281 207.992188 C 165.988281 206.464844 165.855469 205.210938 165.597656 204.234375 C 165.335938 203.242188 164.847656 202.394531 164.132812 201.675781 L 187.175781 201.675781 C 190.652344 201.675781 193.503906 202.316406 195.734375 203.582031 C 197.957031 204.851562 199.621094 206.496094 200.714844 208.511719 C 201.8125 210.535156 202.359375 212.6875 202.359375 214.984375 C 202.359375 216.484375 202.046875 218.03125 201.421875 219.628906 C 200.796875 221.214844 199.855469 222.675781 198.601562 224.011719 C 197.351562 225.355469 195.792969 226.4375 193.933594 227.273438 C 192.066406 228.09375 189.902344 228.5 187.4375 228.5 C 185.464844 228.5 183.546875 228.304688 181.667969 227.898438 C 179.804688 227.5 178.101562 227.117188 176.554688 226.75 C 175.023438 226.371094 173.75 226.175781 172.746094 226.175781 C 172.394531 226.175781 172.097656 226.253906 171.859375 226.414062 C 171.628906 226.554688 171.519531 226.765625 171.519531 227.039062 C 171.519531 227.578125 172.039062 228.042969 173.085938 228.421875 C 174.140625 228.785156 175.492188 229.09375 177.128906 229.335938 C 178.777344 229.5625 180.496094 229.753906 182.269531 229.910156 C 184.042969 230.066406 185.640625 230.214844 187.070312 230.351562 C 192.550781 230.894531 196.546875 232.320312 199.074219 234.632812 C 201.609375 236.925781 202.882812 239.921875 202.882812 243.605469 C 202.882812 245.714844 202.296875 247.652344 201.132812 249.425781 C 199.984375 251.199219 198.425781 252.628906 196.464844 253.707031 C 194.492188 254.769531 192.277344 255.296875 189.808594 255.296875 L 164.132812 255.296875 C 164.847656 254.585938 165.335938 253.746094 165.597656 252.765625 C 165.855469 251.773438 165.988281 250.515625 165.988281 248.984375 Z M 183.261719 212.398438 C 181.433594 212.398438 179.648438 212.597656 177.910156 212.972656 C 176.191406 213.339844 174.648438 213.875 173.292969 214.566406 C 171.9375 215.265625 170.847656 216.074219 170.03125 216.992188 C 169.230469 217.898438 168.832031 218.890625 168.832031 219.96875 C 168.832031 221.1875 169.386719 222.125 170.5 222.785156 C 171.609375 223.449219 172.902344 223.777344 174.363281 223.777344 C 177.441406 223.777344 180.058594 223.386719 182.21875 222.601562 C 184.371094 221.808594 186.027344 220.839844 187.175781 219.707031 C 188.324219 218.558594 188.898438 217.449219 188.898438 216.367188 C 188.898438 215.289062 188.40625 214.355469 187.4375 213.574219 C 186.476562 212.792969 185.085938 212.398438 183.261719 212.398438 Z M 169.535156 230.351562 C 169.289062 230.351562 169.117188 230.425781 169.015625 230.5625 C 168.921875 230.683594 168.882812 230.816406 168.882812 230.953125 C 168.882812 231.285156 169.097656 231.753906 169.535156 232.363281 C 169.964844 232.953125 170.488281 233.585938 171.101562 234.265625 C 171.707031 234.945312 172.238281 235.570312 172.691406 236.144531 C 173.699219 237.292969 174.820312 238.539062 176.058594 239.875 C 177.292969 241.21875 178.667969 242.367188 180.183594 243.320312 C 181.695312 244.257812 183.3125 244.730469 185.035156 244.730469 C 186.113281 244.730469 186.964844 244.535156 187.59375 244.128906 C 188.21875 243.710938 188.660156 243.210938 188.921875 242.617188 C 189.183594 242.027344 189.3125 241.460938 189.3125 240.917969 C 189.3125 239.601562 188.542969 238.257812 187.019531 236.902344 C 185.484375 235.542969 182.738281 234.257812 178.773438 233.039062 C 175.902344 232.152344 173.816406 231.488281 172.511719 231.03125 C 171.207031 230.582031 170.214844 230.351562 169.535156 230.351562 Z M 169.535156 230.351562 " fill-opacity="1" fill-rule="nonzero"/><path fill="#00ffee" d="M 208.679688 212.085938 C 208 209.863281 207.320312 207.796875 206.644531 205.878906 C 205.964844 203.964844 205.066406 202.5625 203.957031 201.675781 L 226.109375 201.675781 C 225.496094 202.355469 225.019531 203.230469 224.671875 204.285156 C 224.339844 205.328125 224.175781 206.410156 224.175781 207.519531 C 224.175781 208.199219 224.269531 209.386719 224.464844 211.070312 C 224.652344 212.738281 224.933594 214.722656 225.300781 217.019531 C 225.679688 219.300781 226.121094 221.703125 226.628906 224.21875 C 227.132812 226.746094 227.679688 229.222656 228.273438 231.65625 C 228.863281 234.078125 229.5 236.289062 230.179688 238.285156 C 230.859375 240.265625 231.550781 241.851562 232.265625 243.035156 C 232.976562 244.199219 233.6875 244.78125 234.40625 244.78125 C 235.34375 244.78125 236.132812 244.304688 236.78125 243.347656 C 237.417969 242.375 237.929688 241.078125 238.292969 239.457031 C 238.671875 237.828125 238.953125 236.027344 239.128906 234.058594 C 239.296875 232.09375 239.390625 230.109375 239.390625 228.109375 C 239.390625 226.113281 239.324219 224.238281 239.207031 222.5 C 239.082031 220.742188 238.921875 219.277344 238.710938 218.089844 C 238.449219 217.117188 238.171875 216.132812 237.875 215.140625 C 237.597656 214.136719 237.300781 213.117188 236.988281 212.085938 C 236.3125 209.863281 235.632812 207.796875 234.953125 205.878906 C 234.277344 203.964844 233.375 202.5625 232.265625 201.675781 L 254.417969 201.675781 C 253.804688 202.355469 253.328125 203.230469 252.984375 204.285156 C 252.652344 205.328125 252.488281 206.410156 252.488281 207.519531 C 252.488281 208.199219 252.578125 209.386719 252.773438 211.070312 C 252.964844 212.738281 253.25 214.722656 253.636719 217.019531 C 254.015625 219.300781 254.453125 221.703125 254.941406 224.21875 C 255.441406 226.746094 255.992188 229.222656 256.585938 231.65625 C 257.171875 234.078125 257.8125 236.289062 258.488281 238.285156 C 259.167969 240.265625 259.859375 241.851562 260.578125 243.035156 C 261.289062 244.199219 262 244.78125 262.714844 244.78125 C 263.65625 244.78125 264.386719 244.390625 264.910156 243.605469 C 265.445312 242.824219 265.828125 241.800781 266.054688 240.527344 C 266.296875 239.261719 266.421875 237.914062 266.421875 236.484375 C 266.421875 234.332031 266.148438 232.230469 265.613281 230.195312 C 265.070312 228.160156 264.414062 226.175781 263.628906 224.246094 C 262.847656 222.316406 262.050781 220.410156 261.253906 218.53125 C 260.453125 216.652344 259.78125 214.792969 259.246094 212.949219 C 258.703125 211.089844 258.4375 209.230469 258.4375 207.363281 C 258.4375 206.515625 258.542969 205.65625 258.75 204.78125 C 258.972656 203.894531 259.363281 203.15625 259.925781 202.5625 C 260.5 201.976562 261.308594 201.675781 262.351562 201.675781 L 280.460938 201.675781 C 279.363281 202.5625 278.476562 203.964844 277.796875 205.878906 C 277.121094 207.796875 276.441406 209.863281 275.761719 212.085938 C 274.679688 215.726562 273.742188 219.046875 272.945312 222.054688 C 272.144531 225.070312 271.433594 227.992188 270.804688 230.820312 C 270.179688 233.660156 269.566406 236.613281 268.980469 239.695312 C 268.386719 242.773438 267.753906 246.164062 267.074219 249.871094 C 266.878906 250.914062 266.878906 251.945312 267.074219 252.949219 C 267.28125 253.941406 267.675781 254.722656 268.25 255.296875 L 244.503906 255.296875 C 245.109375 254.722656 245.503906 253.941406 245.679688 252.949219 C 245.847656 251.945312 245.847656 250.914062 245.679688 249.871094 C 245.066406 246.414062 244.492188 243.253906 243.957031 240.398438 C 243.414062 237.527344 242.839844 234.753906 242.234375 232.074219 C 241.621094 234.753906 241.039062 237.527344 240.484375 240.398438 C 239.945312 243.253906 239.371094 246.414062 238.761719 249.871094 C 238.566406 250.914062 238.566406 251.945312 238.761719 252.949219 C 238.972656 253.941406 239.363281 254.722656 239.9375 255.296875 L 216.191406 255.296875 C 216.78125 254.722656 217.164062 253.941406 217.339844 252.949219 C 217.53125 251.945312 217.535156 250.914062 217.367188 249.871094 C 216.6875 246.164062 216.050781 242.773438 215.460938 239.695312 C 214.867188 236.613281 214.25 233.660156 213.609375 230.820312 C 212.964844 227.992188 212.242188 225.070312 211.445312 222.054688 C 210.660156 219.046875 209.734375 215.726562 208.679688 212.085938 Z M 208.679688 212.085938 " fill-opacity="1" fill-rule="nonzero"/><path fill="#00ffee" d="M 282.703125 222.523438 C 282.351562 222.523438 282.0625 222.40625 281.839844 222.160156 C 281.632812 221.917969 281.527344 221.609375 281.527344 221.246094 L 281.527344 201.675781 L 323.199219 201.675781 L 323.199219 221.246094 C 323.199219 221.609375 323.09375 221.917969 322.886719 222.160156 C 322.691406 222.40625 322.402344 222.523438 322.023438 222.523438 C 321.585938 222.523438 321.089844 222.09375 320.539062 221.21875 C 319.976562 220.351562 319.390625 219.230469 318.761719 217.855469 C 318.136719 216.464844 317.492188 214.996094 316.832031 213.445312 C 316.167969 211.898438 315.507812 210.4375 314.847656 209.058594 C 314.183594 207.671875 313.542969 206.542969 312.917969 205.667969 C 312.292969 204.800781 311.691406 204.363281 311.117188 204.363281 C 310.335938 204.363281 309.863281 204.730469 309.707031 205.460938 C 309.550781 206.191406 309.472656 206.964844 309.472656 207.78125 L 309.472656 248.984375 C 309.472656 250.515625 309.605469 251.773438 309.863281 252.765625 C 310.140625 253.746094 310.636719 254.585938 311.351562 255.296875 L 293.375 255.296875 C 294.085938 254.585938 294.574219 253.746094 294.835938 252.765625 C 295.109375 251.773438 295.253906 250.515625 295.253906 248.984375 L 295.253906 207.78125 C 295.253906 206.964844 295.175781 206.191406 295.019531 205.460938 C 294.863281 204.730469 294.378906 204.363281 293.582031 204.363281 C 293.023438 204.363281 292.433594 204.800781 291.808594 205.667969 C 291.183594 206.542969 290.535156 207.671875 289.878906 209.058594 C 289.210938 210.4375 288.554688 211.898438 287.894531 213.445312 C 287.230469 214.996094 286.589844 216.464844 285.964844 217.855469 C 285.339844 219.230469 284.75 220.351562 284.214844 221.21875 C 283.675781 222.09375 283.171875 222.523438 282.703125 222.523438 Z M 282.703125 222.523438 " fill-opacity="1" fill-rule="nonzero"/><g clip-path="url(#679d3c9f92)"><g clip-path="url(#cc6ae50039)"><path fill="#00ffee" d="M 84.183594 122.339844 C 92.476562 127.597656 100.707031 133.089844 108.828125 138.632812 C 114.601562 142.582031 120.207031 146.695312 125.867188 150.753906 C 128.097656 152.417969 130.214844 154.132812 132.960938 156.304688 C 130.617188 156.820312 129.011719 157.21875 127.414062 157.507812 C 119.292969 159.105469 113.691406 163.566406 112.203125 171.914062 C 111.289062 177.113281 111.0625 182.546875 110.890625 187.863281 C 110.714844 193.238281 110.65625 193.359375 105.6875 191.296875 C 99.855469 188.894531 94.132812 189.183594 88.707031 192.210938 C 82.070312 195.925781 78.980469 203.128906 80.925781 210.449219 C 83.15625 218.628906 88.648438 224.628906 95.789062 228.804688 C 101.910156 232.40625 108.542969 235.378906 115.058594 238.238281 C 121.355469 240.984375 126.441406 245.269531 131.074219 250.078125 C 140.21875 259.625 149.828125 268.542969 160.75 275.972656 C 162.632812 277.234375 164.746094 278.203125 166.867188 279.125 C 167.492188 279.40625 168.40625 279.125 169.207031 279.125 C 169.324219 278.890625 169.4375 278.609375 169.554688 278.382812 C 168.980469 277.976562 168.464844 277.578125 167.839844 277.234375 C 161.832031 274.148438 157.714844 268.890625 153.371094 264.023438 C 145.195312 254.996094 139.644531 244.296875 134.558594 233.265625 C 128.84375 220.910156 125.472656 207.988281 124.042969 194.558594 C 123.527344 190.097656 124.726562 189.234375 129.128906 190.207031 C 143.9375 193.585938 158.863281 195.988281 174.128906 195.757812 C 178.589844 195.699219 183.101562 196.046875 187.566406 195.925781 C 196.027344 195.808594 204.484375 195.867188 212.894531 195.183594 C 218.894531 194.726562 224.84375 192.726562 230.90625 192.269531 C 240.453125 191.582031 249.542969 189.066406 258.636719 186.605469 C 260.75 186.039062 262.640625 184.78125 264.695312 183.867188 C 264.585938 183.578125 264.527344 183.351562 264.410156 183.121094 C 262.691406 183.292969 260.925781 183.402344 259.210938 183.75 C 252.804688 185.007812 246.398438 186.78125 239.941406 187.636719 C 226.5 189.410156 213.234375 192.210938 199.625 191.582031 C 198.257812 191.523438 196.828125 191.8125 195.453125 191.871094 C 186.933594 192.554688 179.15625 191.640625 172.867188 184.664062 C 168.007812 179.285156 162.632812 174.316406 156.972656 169.738281 C 138.960938 155.386719 120.78125 141.261719 102.652344 127.140625 C 98.992188 124.226562 95.054688 121.65625 92.820312 117.308594 C 89.449219 110.734375 87.269531 103.929688 86.871094 96.496094 C 86.644531 92.207031 86.300781 87.976562 85.671875 83.742188 C 85.046875 79.167969 82.640625 77.113281 78.066406 76.769531 C 73.550781 76.480469 70.746094 79.058594 68.804688 82.71875 C 66.460938 87.0625 65.828125 91.863281 67.035156 96.664062 C 69.71875 107.128906 74.636719 116.222656 84.183594 122.339844 Z M 100.371094 213.195312 C 99.507812 211.421875 99.050781 209.476562 98.707031 208.453125 C 98.882812 203.476562 103.285156 197.988281 107.113281 197.246094 C 109.683594 196.730469 110.945312 197.414062 111.457031 199.933594 C 112.203125 203.417969 112.777344 206.964844 113.402344 210.449219 C 113.691406 212.339844 113.0625 213.710938 111.121094 214.394531 C 109.914062 214.851562 108.769531 215.425781 107.511719 215.882812 C 103.742188 217.371094 102.085938 216.855469 100.371094 213.195312 Z M 117.289062 229.148438 C 116.894531 229.429688 115.921875 229.378906 115.40625 229.03125 C 113.402344 227.773438 111.398438 226.460938 109.457031 225.035156 C 107.96875 223.886719 105.972656 222.347656 107.113281 220.453125 C 108.144531 218.6875 110.429688 217.714844 112.601562 216.109375 C 113.808594 217.539062 114.890625 218.28125 115.289062 219.3125 C 116.261719 221.882812 116.953125 224.628906 117.578125 227.316406 C 117.804688 227.890625 117.636719 228.863281 117.289062 229.148438 Z M 140.90625 162.476562 C 142.449219 164.132812 144.453125 165.339844 146.222656 166.769531 C 147.707031 168.027344 149.085938 169.339844 150.96875 171.171875 C 149.253906 171.796875 148.222656 172.144531 147.25 172.542969 C 142.449219 174.65625 137.53125 176.546875 132.84375 178.949219 C 130.101562 180.375 127.585938 180.945312 125.066406 179.058594 C 122.605469 177.230469 120.265625 175.171875 118.261719 172.941406 C 116.4375 170.945312 117.121094 168.652344 118.550781 166.59375 C 121.296875 162.824219 125.242188 161.046875 129.585938 160.078125 C 130.042969 159.964844 130.617188 160.015625 131.015625 159.789062 C 135.132812 157.84375 138.105469 159.503906 140.90625 162.476562 Z M 140.90625 162.476562 " fill-opacity="1" fill-rule="nonzero"/></g></g><g clip-path="url(#170acf3a2a)"><g clip-path="url(#b495759f5e)"><path fill="#00ffee" d="M 187.566406 327.265625 C 178.929688 326.867188 170.296875 325.835938 161.71875 324.6875 C 154.34375 323.71875 147.023438 321.949219 139.644531 320.976562 C 128.386719 319.488281 117.578125 316.289062 107.230469 311.941406 C 98.707031 308.394531 90.53125 303.878906 82.699219 299.019531 C 75.210938 294.449219 69.71875 287.925781 68.058594 278.777344 C 65.261719 263.285156 77.09375 246.476562 86.476562 240.636719 C 88.242188 239.496094 90.015625 239.613281 91.851562 240.636719 C 94.191406 241.957031 96.535156 243.324219 98.941406 244.472656 C 105.570312 247.449219 112.371094 250.136719 118.894531 253.332031 C 125.582031 256.59375 132.445312 259.796875 136.847656 266.3125 C 137.363281 267.054688 138.164062 267.570312 138.851562 268.144531 C 139.136719 267.96875 139.417969 267.800781 139.703125 267.628906 C 139.019531 266.085938 138.730469 264.199219 137.648438 263.109375 C 134.101562 259.507812 130.5 255.792969 126.382812 252.992188 C 121.464844 249.671875 115.921875 247.273438 110.65625 244.472656 C 109.226562 243.730469 107.917969 242.867188 106.539062 242.015625 C 101.910156 239.039062 97.453125 235.894531 92.703125 233.089844 C 85.273438 228.746094 80.1875 222.574219 76.636719 214.742188 C 70.921875 202.15625 79.382812 183.917969 96.421875 185.347656 C 100.65625 185.75 105.113281 185.691406 105.113281 185.691406 C 103.394531 184.433594 101.511719 183.867188 100.140625 183.519531 C 100.082031 183.519531 99.964844 183.460938 99.914062 183.460938 C 99.855469 183.460938 99.738281 183.460938 99.683594 183.402344 C 98.882812 183.234375 98.308594 183.175781 98.195312 183.175781 C 94.707031 182.660156 91.21875 182.09375 87.785156 182.203125 C 82.757812 182.378906 78.183594 184.433594 74.921875 188.320312 C 68.175781 196.324219 68.289062 205.992188 70.519531 215.308594 C 71.71875 220.34375 75.554688 224.6875 78.296875 229.320312 C 78.808594 230.234375 79.496094 231.035156 80.1875 232.007812 C 79.15625 232.582031 78.414062 233.089844 77.609375 233.4375 C 70.6875 236.46875 64.855469 241.042969 60.402344 246.984375 C 57.140625 251.335938 53.648438 255.96875 52.109375 260.996094 C 47.25 277.003906 53.769531 289.925781 65.886719 299.875 C 72.066406 304.960938 79.78125 308.453125 87.101562 311.941406 C 97.566406 316.859375 108.542969 320.519531 119.808594 323.4375 C 127.414062 325.378906 135.074219 327.664062 142.847656 328.40625 C 156.34375 329.667969 169.894531 330.0625 183.390625 330.351562 C 189.90625 330.527344 196.480469 329.667969 203.058594 329.378906 C 205.457031 329.269531 207.859375 329.320312 210.207031 329.269531 C 211.238281 329.210938 212.210938 328.921875 213.234375 328.753906 C 213.292969 328.40625 213.292969 328.007812 213.351562 327.664062 C 212.261719 327.433594 211.121094 326.980469 210.039062 326.980469 C 202.488281 326.980469 194.996094 327.605469 187.566406 327.265625 Z M 187.566406 327.265625 " fill-opacity="1" fill-rule="nonzero"/></g></g><g clip-path="url(#c5fef2a736)"><g clip-path="url(#5911e8adb1)"><path fill="#00ffee" d="M 93.050781 103.472656 C 95.738281 109.535156 98.078125 115.824219 103.511719 120.285156 C 109.574219 125.3125 115.347656 130.6875 121.179688 135.886719 C 127.414062 141.441406 133.355469 147.441406 139.992188 152.46875 C 149.136719 159.390625 158.0625 166.480469 166.234375 174.601562 C 170.8125 179.117188 176.242188 182.777344 181.386719 186.722656 C 182.707031 187.753906 183.730469 187.46875 184.015625 185.347656 C 183.847656 185.234375 183.449219 185.066406 183.21875 184.78125 C 179.503906 180.945312 179.613281 179.175781 183.789062 175.855469 C 184.648438 175.171875 185.5625 174.484375 186.59375 174.199219 C 191.5625 172.710938 196.539062 171.222656 201.570312 170.023438 C 203.515625 169.566406 205.6875 169.855469 207.804688 169.855469 C 210.265625 169.855469 212.777344 169.855469 215.238281 169.855469 C 215.296875 169.507812 215.296875 169.167969 215.355469 168.882812 C 213.351562 168.484375 211.40625 167.96875 209.40625 167.742188 C 206.945312 167.453125 204.433594 167.453125 201.976562 167.285156 C 190.878906 166.480469 179.730469 165.453125 168.695312 168.027344 C 167.09375 168.425781 164.746094 168.367188 163.605469 167.453125 C 159.03125 163.964844 154.800781 160.078125 150.167969 156.078125 C 151.542969 155.15625 152.339844 154.246094 153.3125 154.074219 C 159.605469 152.757812 165.945312 150.929688 172.292969 150.644531 C 182.476562 150.1875 192.710938 150.8125 202.945312 150.984375 C 203.226562 150.984375 203.515625 151.042969 203.859375 151.042969 C 213.410156 151.785156 222.902344 152.527344 232.449219 153.273438 C 234.160156 153.390625 235.933594 153.273438 237.648438 153.273438 C 237.648438 152.875 237.648438 152.417969 237.648438 152.011719 C 228.328125 151.21875 218.953125 150.527344 209.632812 149.671875 C 196.144531 148.472656 182.648438 147.324219 169.097656 148.640625 C 162.007812 149.324219 155.027344 151.042969 147.996094 152.191406 C 147.082031 152.359375 145.824219 152.191406 145.136719 151.617188 C 140.90625 148.242188 136.730469 144.921875 132.730469 141.261719 C 124.777344 134.003906 117.003906 126.574219 109.117188 119.304688 C 104.484375 115.078125 100.824219 110.21875 98.136719 104.558594 C 96.480469 101.066406 94.308594 97.8125 92.25 94.492188 C 92.1875 94.441406 92.128906 94.382812 92.128906 94.324219 L 88.53125 88.144531 C 88.53125 88.144531 88.757812 91.179688 89.273438 92.722656 C 90.421875 96.324219 91.503906 99.984375 93.050781 103.472656 Z M 93.050781 103.472656 " fill-opacity="1" fill-rule="nonzero"/></g></g><g clip-path="url(#5bd016fd46)"><g clip-path="url(#74b49aaf61)"><path fill="#00ffee" d="M 103.683594 272.542969 C 103.683594 271.34375 103.683594 270.140625 103.683594 268.941406 C 103.625 265.230469 101.96875 262.484375 99.449219 261.800781 C 96.253906 260.878906 92.820312 262.484375 90.878906 265.738281 C 88.015625 270.429688 87.617188 275.632812 87.558594 281.007812 C 87.558594 283.351562 88.300781 285.125 90.304688 286.613281 C 91.621094 287.585938 93.101562 288.894531 93.566406 290.332031 C 94.765625 293.933594 97.503906 296.046875 100.253906 298.160156 C 101.570312 299.132812 103.453125 299.824219 105.113281 299.875 C 111.628906 300.160156 115.464844 295.988281 118.667969 291.128906 C 120.207031 288.726562 120.664062 285.980469 120.035156 283.066406 C 119.292969 279.40625 117.976562 277.917969 114.316406 277.976562 C 112.03125 277.976562 109.683594 278.777344 107.402344 279.351562 C 104.484375 280.097656 103.511719 279.40625 103.511719 276.4375 L 103.511719 272.542969 Z M 96.761719 275.289062 C 96.253906 277.578125 95.5625 279.808594 94.132812 281.863281 C 93.617188 279.40625 93.90625 277.0625 94.308594 274.773438 C 94.816406 272.492188 95.507812 270.257812 96.9375 268.199219 C 97.453125 270.65625 97.167969 273.003906 96.761719 275.289062 Z M 106.203125 290.15625 C 106.828125 289.125 107.570312 288.210938 108.375 287.410156 C 109.226562 286.613281 110.089844 285.8125 111.121094 285.238281 C 112.144531 284.609375 113.234375 284.035156 114.601562 283.808594 C 114.316406 285.183594 113.808594 286.265625 113.175781 287.296875 C 112.601562 288.328125 111.804688 289.242188 111.003906 290.042969 C 110.199219 290.839844 109.285156 291.582031 108.257812 292.214844 C 107.230469 292.84375 106.140625 293.359375 104.773438 293.644531 C 105.054688 292.273438 105.570312 291.128906 106.203125 290.15625 Z M 106.203125 290.15625 " fill-opacity="1" fill-rule="nonzero"/></g></g><g clip-path="url(#3c15330e0d)"><g clip-path="url(#013d6de67c)"><path fill="#00ffee" d="M 123.984375 281.40625 C 129.410156 284.726562 135.074219 287.644531 140.792969 290.382812 C 143.996094 291.929688 147.480469 293.011719 150.96875 293.757812 C 155.945312 294.785156 161.035156 294.957031 166.003906 295.988281 C 173.5 297.53125 180.988281 297.589844 188.59375 296.847656 C 188.992188 296.789062 189.390625 296.503906 190.253906 296.046875 C 185.214844 295.53125 180.8125 294.675781 176.417969 294.726562 C 170.636719 294.726562 165.152344 293.875 159.660156 292.273438 C 156.34375 291.304688 152.914062 290.613281 149.601562 289.527344 C 144.5625 287.925781 139.417969 286.554688 134.734375 284.210938 C 122.269531 277.917969 119.234375 268.890625 120.148438 257.625 C 119.867188 257.449219 119.582031 257.277344 119.351562 257.109375 C 118.4375 258.824219 117.0625 260.480469 116.605469 262.367188 C 115.007812 268.316406 118.667969 278.144531 123.984375 281.40625 Z M 123.984375 281.40625 " fill-opacity="1" fill-rule="nonzero"/></g></g><g clip-path="url(#88e8d38954)"><g clip-path="url(#a52918fb34)"><path fill="#00ffee" d="M 124.210938 95.980469 C 124.441406 97.179688 124.667969 98.378906 125.015625 99.582031 C 125.015625 99.582031 125.015625 99.640625 125.015625 99.699219 C 125.015625 99.757812 125.015625 99.816406 125.066406 99.867188 C 125.925781 102.839844 127.128906 105.757812 128.84375 108.5625 C 132.613281 114.792969 138.335938 118.96875 144.453125 122.507812 C 155.710938 127.367188 169.605469 127.546875 180.871094 126.398438 C 188.308594 125.652344 194.539062 124.34375 198.085938 123.480469 C 198.542969 123.429688 198.941406 123.3125 199.339844 123.199219 C 199.457031 123.140625 199.625 123.140625 199.742188 123.082031 C 199.914062 123.082031 200.03125 123.023438 200.199219 122.964844 C 200.257812 122.964844 200.3125 122.964844 200.371094 122.914062 C 200.488281 122.914062 200.539062 122.855469 200.65625 122.855469 C 200.886719 122.796875 201.054688 122.738281 201.171875 122.683594 C 201.285156 122.683594 201.34375 122.625 201.34375 122.625 C 201.34375 122.625 201.34375 122.625 201.402344 122.625 C 202.601562 122.28125 203.800781 121.765625 205 121.308594 C 205.058594 121.308594 205.058594 121.308594 205.117188 121.257812 C 214.78125 117.878906 240.226562 110.675781 247.65625 123.9375 C 247.65625 123.9375 247.65625 123.9375 247.65625 123.996094 C 250.800781 129.660156 248.289062 138.296875 243.597656 147.152344 C 239.710938 154.589844 234.277344 162.191406 229.417969 168.425781 C 225.757812 173.117188 222.386719 177.054688 220.273438 179.464844 C 219.066406 180.832031 218.210938 181.6875 217.984375 182.035156 C 220.273438 180.488281 257.546875 154.699219 261.324219 126.515625 C 261.324219 126.457031 261.324219 126.34375 261.324219 126.285156 C 264.753906 100.09375 247.828125 92.664062 232.164062 94.324219 C 230.507812 94.492188 228.84375 94.777344 227.304688 95.125 C 213.519531 98.269531 189.105469 115.707031 162.058594 113.421875 C 156.175781 112.90625 150.167969 111.476562 144.167969 108.789062 C 144.109375 108.789062 144.109375 108.789062 144.046875 108.730469 C 144.046875 108.730469 144.046875 108.730469 143.9375 108.671875 C 143.9375 108.671875 143.9375 108.671875 143.878906 108.613281 C 143.820312 108.613281 143.769531 108.5625 143.710938 108.503906 C 140.507812 105.984375 115.515625 84.542969 143.421875 47.667969 C 143.59375 47.492188 143.710938 47.382812 143.820312 47.265625 C 143.820312 47.265625 143.820312 47.207031 143.769531 47.207031 C 144.453125 46.292969 145.136719 45.4375 145.941406 44.464844 C 145.652344 44.578125 143.195312 45.664062 140.109375 48.007812 C 139.820312 48.234375 139.476562 48.464844 139.1875 48.691406 C 131.015625 55.097656 119.066406 69.28125 124.210938 95.75 C 124.210938 95.867188 124.210938 95.921875 124.210938 95.980469 Z M 124.210938 95.980469 " fill-opacity="1" fill-rule="nonzero"/></g></g></svg>